<svg width="50" height="50" viewBox="0 0 50 50" fill="none" xmlns="http://www.w3.org/2000/svg">
<path d="M25 2.60376C26.1882 2.60377 27.2754 2.91267 28.4492 3.41821C29.579 3.90478 30.8891 4.62048 32.5078 5.50513L42.5293 10.9817C43.809 11.6809 44.927 12.292 45.7148 12.8948C46.5522 13.5355 47.3476 14.4146 47.3936 15.7219C47.4393 17.0248 46.7121 17.9605 45.9268 18.6653C45.1853 19.3307 44.1159 20.0328 42.8877 20.8381L42.7227 20.9456L41.1455 21.7756V31.2981C41.1455 36.2291 38.7586 40.8542 34.7705 43.4465L31.8535 45.342C27.6411 48.0801 22.3579 48.0802 18.1455 45.342L15.2295 43.4465C11.2414 40.8542 8.85449 36.2291 8.85449 31.2981V21.7756L7.27734 20.9456L7.1123 20.8381C5.88411 20.0328 4.81469 19.3307 4.07324 18.6653C3.28791 17.9605 2.56068 17.0248 2.60645 15.7219C2.65238 14.4146 3.44779 13.5355 4.28516 12.8948C5.07301 12.292 6.19102 11.6809 7.4707 10.9817C7.50659 10.9621 7.54296 10.9428 7.5791 10.9231L17.4922 5.50513C19.1108 4.62049 20.4211 3.90477 21.5508 3.41821C22.7246 2.91269 23.8118 2.60376 25 2.60376ZM25 27.6038C20.2179 27.6038 15.7649 28.2261 11.9795 29.2913V31.2981C11.9795 35.2465 13.8926 38.8503 16.9326 40.8264L19.8486 42.7219C23.0254 44.7869 26.9736 44.7868 30.1504 42.7219L33.0674 40.8264C36.1074 38.8503 38.0205 35.2465 38.0205 31.2981V29.2913C34.235 28.226 29.7822 27.6038 25 27.6038ZM25 20.3127C20.218 20.3127 15.7649 20.9332 11.9795 21.9983V26.053C15.8698 25.0453 20.3056 24.4788 25 24.4788C29.6945 24.4788 34.1302 25.0453 38.0205 26.053V21.9983C34.2351 20.9331 29.782 20.3128 25 20.3127ZM25 5.72876C24.3873 5.72876 23.7367 5.87894 22.7861 6.28833C21.8067 6.71019 20.625 7.35384 18.9258 8.28247L9.07715 13.6653C7.65766 14.4411 6.75779 14.9378 6.18457 15.3762C5.91309 15.5839 5.79722 15.7188 5.75098 15.7883C5.73693 15.8095 5.7313 15.8221 5.72949 15.8264V15.8381C5.72949 15.8381 5.73027 15.8426 5.73242 15.8479C5.7353 15.8549 5.74125 15.8677 5.75098 15.885C5.79454 15.9622 5.90289 16.1092 6.16016 16.3401C6.69477 16.8198 7.54187 17.3815 8.86621 18.2502L10.5762 19.1516C14.7879 17.9013 19.731 17.1877 25 17.1877C30.2687 17.1878 35.2113 17.9015 39.4229 19.1516L41.1338 18.2502C42.4582 17.3815 43.3052 16.8199 43.8398 16.3401C44.0972 16.1091 44.2055 15.9622 44.249 15.885C44.2587 15.8677 44.2647 15.8549 44.2676 15.8479C44.269 15.8445 44.2702 15.8409 44.2705 15.8401V15.8264C44.2687 15.8221 44.2631 15.8095 44.249 15.7883C44.2028 15.7189 44.087 15.584 43.8154 15.3762C43.2422 14.9377 42.3424 14.4411 40.9229 13.6653L31.0742 8.28247C29.3747 7.35368 28.1924 6.7102 27.2129 6.28833C26.2625 5.87905 25.6126 5.72877 25 5.72876Z" fill="#F8F8F8"/>
</svg>
